<svg width="22" height="22" viewBox="0 0 22 22" fill="none" xmlns="http://www.w3.org/2000/svg">
<path fill-rule="evenodd" clip-rule="evenodd" d="M11 22C4.92487 22 0 17.0751 0 11C0 4.92487 4.92487 0 11 0C17.0751 0 22 4.92487 22 11C22 17.0751 17.0751 22 11 22ZM11 20C15.9706 20 20 15.9706 20 11C20 6.02944 15.9706 2 11 2C6.02944 2 2 6.02944 2 11C2 15.9706 6.02944 20 11 20ZM12 15C12.3905 14.6095 12.3905 13.9763 12 13.5858L9.41421 11L12 8.41421C12.3905 8.02369 12.3905 7.39052 12 7C11.6095 6.60948 10.9763 6.60948 10.5858 7L7.67204 9.91374C7.07212 10.5137 7.07212 11.4863 7.67204 12.0863L10.5858 15C10.9763 15.3905 11.6095 15.3905 12 15Z" fill="#3F403F"/>
</svg>
