<svg width="" height="22" viewBox="0 0 22 22" fill="none" xmlns="http://www.w3.org/2000/svg">
<path fill-rule="evenodd" clip-rule="evenodd" d="M11 22C4.92487 22 0 17.0751 0 11C0 4.92487 4.92487 0 11 0C17.0751 0 22 4.92487 22 11C22 17.0751 17.0751 22 11 22ZM11 20C15.9706 20 20 15.9706 20 11C20 6.02944 15.9706 2 11 2C6.02944 2 2 6.02944 2 11C2 15.9706 6.02944 20 11 20ZM9 7C8.60948 7.39052 8.60948 8.02369 9 8.41421L11.5858 11L9 13.5858C8.60948 13.9763 8.60948 14.6095 9 15C9.39052 15.3905 10.0237 15.3905 10.4142 15L13.328 12.0863C13.9279 11.4863 13.9279 10.5137 13.328 9.91375L10.4142 7C10.0237 6.60948 9.39052 6.60948 9 7Z" fill="#3F403F"/>
</svg>
